<?xml version="1.0" encoding="UTF-8"?>
<svg width="1129px" height="574px" viewBox="0 0 1129 574" version="1.1" xmlns="http://www.w3.org/2000/svg" xmlns:xlink="http://www.w3.org/1999/xlink">
    <!-- Generator: Sketch 42 (36781) - http://www.bohemiancoding.com/sketch -->
    <title>bowler-hat</title>
    <desc>Created with Sketch.</desc>
    <defs></defs>
    <g id="Page-1" stroke="none" stroke-width="1" fill="none" fill-rule="evenodd">
        <g id="bowler-hat" fill-rule="nonzero">
            <g transform="translate(188.000000, 191.000000)" id="Page-1">
                <g>
                    <g id="Footer">
                        <g id="user-23">
                            <polygon id="Shape" fill="#434343" points="733.616673 274.270815 733.616673 363.568289 657.107847 363.568289 96.0431264 363.568289 19.5343009 363.568289 19.5343009 274.270815 134.297539 274.270815 618.853434 274.270815"></polygon>
                            <rect id="Rectangle-path" fill="#808080" x="134.297539" y="184.97334" width="484.555895" height="89.2974742"></rect>
                            <path d="M618.853434,95.6758655 L618.853434,184.97334 L134.297539,184.97334 L134.297539,95.6758655 C134.297539,95.6758655 158.270305,19.1351731 236.309307,19.1351731 L376.575487,19.1351731 L516.841667,19.1351731 C594.880669,19.1351731 618.853434,95.6758655 618.853434,95.6758655 L618.853434,95.6758655 Z" id="Shape" fill="#434343"></path>
                            <path d="M676.235052,382.703462 L752.74388,382.703462 L752.74388,255.135641 L637.980641,255.135641 L637.980641,92.7494599 L637.10589,89.9557244 C627.361216,58.841933 589.68572,0 516.841667,0 L236.309307,0 C163.465254,0 125.789758,58.841933 116.045083,89.9557244 L115.170333,92.7494599 L115.170333,255.135641 L0.407094505,255.135641 L0.407094505,382.703462 L676.235052,382.703462 Z M236.309307,38.2703462 L516.841667,38.2703462 C573.108808,38.2703462 595.224958,87.2028105 599.726228,98.9594613 L599.726228,165.838167 L153.424746,165.838167 L153.424746,98.9696668 C157.984672,87.0675888 180.121225,38.2703462 236.309307,38.2703462 L236.309307,38.2703462 Z M153.424746,204.108513 L599.726228,204.108513 L599.726228,255.135642 L153.424746,255.135642 L153.424746,204.108513 L153.424746,204.108513 Z M38.6615073,293.405988 L714.489466,293.405988 L714.489466,344.433116 L38.6615073,344.433116 L38.6615073,293.405988 L38.6615073,293.405988 Z" id="Shape" fill="#231F20"></path>
                        </g>
                    </g>
                </g>
            </g>
        </g>
    </g>
</svg>