<?xml version="1.0" encoding="UTF-8"?>
<svg width="1024px" height="465px" viewBox="0 0 1024 465" version="1.1" xmlns="http://www.w3.org/2000/svg" xmlns:xlink="http://www.w3.org/1999/xlink">
    <!-- Generator: Sketch 42 (36781) - http://www.bohemiancoding.com/sketch -->
    <title>Desktop</title>
    <desc>Created with Sketch.</desc>
    <defs></defs>
    <g id="Page-1" stroke="none" stroke-width="1" fill="none" fill-rule="evenodd">
        <g id="Desktop" fill-rule="nonzero">
            <g id="handle-broker-intro" transform="translate(392.000000, 169.000000)">
                <g id="Page-1">
                    <g id="handle-broker-intro">
                        <g id="Page-1">
                            <g id="Desktop">
                                <g id="Group">
                                    <ellipse id="Oval" fill="#E0EAFF" cx="120.5" cy="148.418079" rx="120.5" ry="120.383553"></ellipse>
                                    <g id="user-23">
                                        <path d="M235.727263,275.490886 L235.727263,290.711377 L187.060989,290.711377 L187.060989,226.967961 C235.544764,245.658724 235.727263,275.490886 235.727263,275.490886 L235.727263,275.490886 Z" id="Shape" fill="#C7CAC7"></path>
                                        <polygon id="Shape" fill="#434343" points="205.310842 65.4481111 205.310842 86.7567985 187.060989 86.7567985 53.2287368 86.7567985 34.9788842 86.7567985 34.9788842 65.4481111 62.3536631 65.4481111 177.936063 65.4481111"></polygon>
                                        <path d="M205.310842,114.153682 C205.310842,121.946574 195.699253,130.957104 186.270162,132.235625 C186.817658,128.33918 187.060989,124.32097 187.060989,120.241879 L187.060989,101.977289 C197.159241,101.977289 205.310842,105.751971 205.310842,114.153682 Z" id="Shape" fill="#A18369"></path>
                                        <path d="M150.561284,186.116163 C141.679689,190.743193 131.459772,193.300235 120.144863,193.300235 C108.829954,193.300235 98.610037,190.743193 89.728442,186.116163 C70.2010997,176.009757 57.3045372,156.040473 54.0195638,132.235625 C53.4720682,128.33918 53.2287368,124.32097 53.2287368,120.241879 L53.2287368,101.977289 L53.2287368,86.7567985 L187.060989,86.7567985 L187.060989,101.977289 L187.060989,120.241879 C187.060989,124.32097 186.817658,128.33918 186.270162,132.235625 C182.985189,156.040473 170.088626,176.009757 150.561284,186.116163 Z" id="Shape" fill="#A18369"></path>
                                        <rect id="Rectangle-path" fill="#808080" x="62.3536631" y="44.1394238" width="115.5824" height="21.3086873"></rect>
                                        <path d="M177.936063,22.8307364 L177.936063,44.1394238 L62.3536631,44.1394238 L62.3536631,22.8307364 C62.3536631,22.8307364 68.0719503,4.56614729 86.6867999,4.56614729 L120.144863,4.56614729 L153.602926,4.56614729 C172.217776,4.56614729 177.936063,22.8307364 177.936063,22.8307364 L177.936063,22.8307364 Z" id="Shape" fill="#434343"></path>
                                        <path d="M150.561284,205.476628 C150.561284,205.476628 138.029719,220.697119 120.144863,220.697119 C102.260008,220.697119 89.728442,205.476628 89.728442,205.476628 L89.728442,186.116163 C98.610037,190.743193 108.829954,193.300235 120.144863,193.300235 C131.459772,193.300235 141.679689,190.743193 150.561284,186.116163 L150.561284,205.476628 Z" id="Shape" fill="#A18369"></path>
                                        <path d="M54.0195638,132.235625 C44.5904732,130.957104 34.9788842,121.946574 34.9788842,114.153682 C34.9788842,105.751971 43.130485,101.977289 53.2287368,101.977289 L53.2287368,120.241879 C53.2287368,124.32097 53.4720682,128.33918 54.0195638,132.235625 Z" id="Shape" fill="#A18369"></path>
                                        <path d="M188.735717,222.720227 C185.604651,221.455708 182.308728,220.353136 179.706907,219.514182 C174.276968,216.65273 160.889484,209.060749 155.123747,203.614249 L155.123747,188.819931 C173.608415,178.242908 186.248871,159.265391 190.287563,136.037095 C200.759329,133.036832 209.873305,123.201351 209.873305,114.153682 C209.873305,104.9946 202.994327,98.9173619 191.623453,97.6583229 L191.623453,91.3229457 L209.873305,91.3229457 L209.873305,60.8819638 L182.498526,60.8819638 L182.498526,22.1324203 L182.28987,21.4657628 C179.965447,14.0412073 170.978611,0 153.602926,0 L86.6867999,0 C69.3111153,0 60.3242795,14.0412073 57.9998566,21.4657628 L57.7912,22.1324203 L57.7912,60.8819638 L30.416421,60.8819638 L30.416421,91.3229457 L48.6662737,91.3229457 L48.6662737,97.6583229 C37.2953988,98.9173619 30.416421,104.995208 30.416421,114.153682 C30.416421,123.201351 39.5303974,133.037441 50.0021629,136.038313 C54.0451135,159.275132 66.6873948,178.251431 85.1659789,188.821149 L85.1659789,203.614857 C79.3996338,209.061358 66.0103253,216.653948 60.5816024,219.5154 C57.4006531,220.545523 54.3559694,221.648095 51.5704335,222.77502 C1.11689098,242.474597 0.0225081516,274.080251 0.000608328421,275.416002 L0,295.277525 L240.289726,295.277525 L240.289726,275.462881 C240.28121,274.117998 239.501941,242.306563 188.735717,222.720227 L188.735717,222.720227 Z M94.2909052,193.176645 C102.30989,196.286495 110.973704,197.866382 120.144863,197.866382 C129.317847,197.866382 137.983486,196.286495 145.998821,193.177862 L145.998821,203.717748 C142.878096,206.982848 132.989109,216.130972 120.144863,216.130972 C107.383958,216.130972 97.4262299,206.965192 94.2909052,203.708616 L94.2909052,193.176645 L94.2909052,193.176645 Z M200.748379,114.153682 C200.748379,117.883311 196.716986,122.960867 191.461637,125.763873 C191.562011,123.959331 191.623453,106.836888 191.623453,106.836888 C199.754979,107.977816 200.748379,112.185977 200.748379,114.153682 L200.748379,114.153682 Z M86.6867999,9.13229457 L153.602926,9.13229457 C167.024476,9.13229457 172.2999,20.8088464 173.3736,23.6142873 L173.3736,39.5732765 L66.9161263,39.5732765 L66.9161263,23.6167226 C68.0038175,20.776579 73.2841082,9.13229457 86.6867999,9.13229457 L86.6867999,9.13229457 Z M66.9161263,48.7055711 L173.3736,48.7055711 L173.3736,60.8819638 L66.9161263,60.8819638 L66.9161263,48.7055711 L66.9161263,48.7055711 Z M39.5413473,70.0142584 L200.748379,70.0142584 L200.748379,82.1906512 L39.5413473,82.1906512 L39.5413473,70.0142584 L39.5413473,70.0142584 Z M39.5413473,114.153682 C39.5413473,112.185977 40.5347477,107.977816 48.6662737,106.836888 C48.6662737,106.836888 48.7277148,123.95994 48.828089,125.763873 C43.5727398,122.960867 39.5413473,117.883311 39.5413473,114.153682 L39.5413473,114.153682 Z M58.5376189,131.600018 C58.0424396,128.073126 57.7912,124.252174 57.7912,120.241879 L57.7912,91.3229457 L182.498526,91.3229457 L182.498526,120.241879 C182.498526,124.252174 182.247287,128.073126 181.750891,131.610976 C178.613133,154.348564 166.480631,172.736134 148.455251,182.066295 C139.961161,186.490587 130.436563,188.734088 120.144863,188.734088 C109.853163,188.734088 100.328565,186.490587 91.8241335,182.060207 C73.8090956,172.736134 61.6772019,154.348564 58.5376189,131.600018 L58.5376189,131.600018 Z M127.815091,163.91807 L127.815091,154.785775 L120.210986,154.785775 L120.210986,134.999137 L111.086059,134.999137 L111.086059,159.351923 C111.086059,161.873654 113.128826,163.91807 115.648523,163.91807 L127.815091,163.91807 Z" id="Shape" fill="#231F20"></path>
                                    </g>
                                </g>
                            </g>
                        </g>
                    </g>
                </g>
            </g>
        </g>
    </g>
</svg>