<?xml version="1.0" encoding="UTF-8"?>
<svg width="100px" height="64px" viewBox="0 0 100 64" version="1.1" xmlns="http://www.w3.org/2000/svg" xmlns:xlink="http://www.w3.org/1999/xlink">
    <!-- Generator: Sketch 42 (36781) - http://www.bohemiancoding.com/sketch -->
    <title>handle-broker-logo</title>
    <desc>Created with Sketch.</desc>
    <defs></defs>
    <g id="Page-1" stroke="none" stroke-width="1" fill="none" fill-rule="evenodd">
        <g id="handle-broker-logo" fill-rule="nonzero">
            <g id="bowler-hat" transform="translate(0.000000, 7.000000)">
                <g id="Page-1">
                    <g id="Footer">
                        <g id="user-23">
                            <polygon id="Shape" fill="#434343" points="97.425853 36.5217012 97.425853 48.4124875 87.2653183 48.4124875 12.7547313 48.4124875 2.59419667 48.4124875 2.59419667 36.5217012 17.8349986 36.5217012 82.185051 36.5217012"></polygon>
                            <rect id="Rectangle-path" fill="#808080" x="17.8349986" y="24.6309147" width="64.3500524" height="11.8907864"></rect>
                            <path d="M82.185051,12.7401283 L82.185051,24.6309147 L17.8349986,24.6309147 L17.8349986,12.7401283 C17.8349986,12.7401283 21.0186328,2.54802566 31.382378,2.54802566 L50.0100248,2.54802566 L68.6376716,2.54802566 C79.0014168,2.54802566 82.185051,12.7401283 82.185051,12.7401283 L82.185051,12.7401283 Z" id="Shape" fill="#434343"></path>
                            <path d="M89.8054517,50.9605132 L99.9659867,50.9605132 L99.9659867,33.9736755 L84.7251847,33.9736755 L84.7251847,12.3504503 L84.6090159,11.9784385 C83.3149025,7.83534878 78.3115166,0 68.6376716,0 L31.382378,0 C21.708533,0 16.7051471,7.83534878 15.4110337,11.9784385 L15.2948649,12.3504503 L15.2948649,33.9736755 L0.0540630153,33.9736755 L0.0540630153,50.9605132 L89.8054517,50.9605132 Z M31.382378,5.09605132 L68.6376716,5.09605132 C76.1100674,5.09605132 79.0471392,11.6118625 79.6449174,13.1773695 L79.6449174,22.082889 L20.3751322,22.082889 L20.3751322,13.1787285 C20.9807001,11.5938565 23.9204814,5.09605132 31.382378,5.09605132 L31.382378,5.09605132 Z M20.3751322,27.1789403 L79.6449174,27.1789403 L79.6449174,33.9736755 L20.3751322,33.9736755 L20.3751322,27.1789403 L20.3751322,27.1789403 Z M5.13433032,39.0697268 L94.8857192,39.0697268 L94.8857192,45.8644619 L5.13433032,45.8644619 L5.13433032,39.0697268 L5.13433032,39.0697268 Z" id="Shape" fill="#231F20"></path>
                        </g>
                    </g>
                </g>
            </g>
        </g>
    </g>
</svg>