<?xml version="1.0" encoding="UTF-8"?>
<svg width="1129px" height="354px" viewBox="0 0 1129 354" version="1.1" xmlns="http://www.w3.org/2000/svg" xmlns:xlink="http://www.w3.org/1999/xlink">
    <!-- Generator: Sketch 42 (36781) - http://www.bohemiancoding.com/sketch -->
    <title>subscribe-header</title>
    <desc>Created with Sketch.</desc>
    <defs></defs>
    <g id="Page-1" stroke="none" stroke-width="1" fill="none" fill-rule="evenodd">
        <g id="subscribe-header" fill-rule="nonzero">
            <g id="bowler-hat" transform="translate(211.000000, 0.000000)">
                <g id="Page-1">
                    <g id="Footer">
                        <g id="user-23">
                            <polygon id="Shape" fill="#434343" points="689.643678 257.800243 689.643678 341.735206 617.720793 341.735206 90.2863 341.735206 18.3634146 341.735206 18.3634146 257.800243 126.247743 257.800243 581.75935 257.800243"></polygon>
                            <rect id="Rectangle-path" fill="#808080" x="126.247743" y="173.86528" width="455.511607" height="83.9349627"></rect>
                            <path d="M581.75935,89.9303174 L581.75935,173.86528 L126.247743,173.86528 L126.247743,89.9303174 C126.247743,89.9303174 148.78358,17.9860635 222.144923,17.9860635 L354.003546,17.9860635 L485.86217,17.9860635 C559.223512,17.9860635 581.75935,89.9303174 581.75935,89.9303174 L581.75935,89.9303174 Z" id="Shape" fill="#434343"></path>
                            <path d="M635.701512,359.72127 L707.6244,359.72127 L707.6244,239.81418 L599.740071,239.81418 L599.740071,87.179649 L598.917753,84.5536836 C589.757175,55.3083443 554.339949,0 485.86217,0 L222.144923,0 C153.667144,0 118.249918,55.3083443 109.089339,84.5536836 L108.267021,87.179649 L108.267021,239.81418 L0.382693255,239.81418 L0.382693255,359.72127 L635.701512,359.72127 Z M222.144923,35.972127 L485.86217,35.972127 C538.756657,35.972127 559.547165,81.9660882 563.778629,93.016726 L563.778629,155.879217 L144.228464,155.879217 L144.228464,93.0263187 C148.515068,81.8389869 169.324756,35.972127 222.144923,35.972127 L222.144923,35.972127 Z M144.228464,191.851344 L563.778629,191.851344 L563.778629,239.81418 L144.228464,239.81418 L144.228464,191.851344 L144.228464,191.851344 Z M36.344136,275.786307 L671.662956,275.786307 L671.662956,323.749143 L36.344136,323.749143 L36.344136,275.786307 L36.344136,275.786307 Z" id="Shape" fill="#231F20"></path>
                        </g>
                    </g>
                </g>
            </g>
        </g>
    </g>
</svg>